<svg xmlns="http://www.w3.org/2000/svg" viewBox="0 0 25 25">
    <defs>
        <style>
            .cls-1{fill:#fff}
        </style>
    </defs>
    <path id="facebook_white" d="M25 33.378v22.238a1.378 1.378 0 0 1-1.378 1.378h-6.373v-9.676H20.5l.485-3.772h-3.742v-2.411c0-1.094.3-1.836 1.869-1.836h2v-3.376a26.858 26.858 0 0 0-2.913-.151c-2.879 0-4.855 1.758-4.855 4.989v2.785h-3.26v3.772h3.259V57H1.378A1.381 1.381 0 0 1 0 55.622V33.378A1.381 1.381 0 0 1 1.378 32h22.238A1.383 1.383 0 0 1 25 33.378z" class="cls-1" transform="translate(0 -32)"/>
</svg>
