<svg xmlns="http://www.w3.org/2000/svg" viewBox="0 0 25 25">
    <defs>
        <style>
            .cls-1{fill:#fff}
        </style>
    </defs>
    <path id="linkedin_white" d="M23.214 32H1.78A1.793 1.793 0 0 0 0 33.8v21.4A1.793 1.793 0 0 0 1.78 57h21.434A1.8 1.8 0 0 0 25 55.2V33.8a1.8 1.8 0 0 0-1.786-1.8zM7.556 53.429H3.85V41.5h3.711v11.929zM5.7 39.868a2.148 2.148 0 1 1 2.152-2.148A2.149 2.149 0 0 1 5.7 39.868zm15.742 13.56H17.74v-5.8c0-1.384-.028-3.164-1.925-3.164-1.931 0-2.227 1.507-2.227 3.064v5.9H9.883V41.5h3.555v1.629h.05A3.9 3.9 0 0 1 17 41.2c3.75 0 4.448 2.472 4.448 5.686z" class="cls-1" transform="translate(0 -32)"/>
</svg>
