<svg xmlns="http://www.w3.org/2000/svg" viewBox="0 0 44 44">
    <defs>
        <style>
            .cls-1{fill:#007ab9}.cls-2{fill:#fff}
        </style>
    </defs>
    <g id="Group_312" data-name="Group 312">
        <circle id="Ellipse_37" cx="22" cy="22" r="22" class="cls-1" data-name="Ellipse 37"/>
        <g id="Group_310" data-name="Group 310" transform="translate(13 13)">
            <path id="Path_41" d="M162.43 138.536v6.536h-3.789v-6.1c0-1.531-.547-2.577-1.919-2.577a2.073 2.073 0 0 0-1.944 1.386 2.593 2.593 0 0 0-.125.924v6.365h-3.79s.051-10.328 0-11.4h3.79v1.615l-.025.037h.025v-.037a3.763 3.763 0 0 1 3.415-1.883c2.493 0 4.362 1.629 4.362 5.129zm-15.53-10.355a1.975 1.975 0 1 0-.05 3.939h.025a1.976 1.976 0 1 0 .025-3.939zm-1.919 16.891h3.788v-11.4h-3.788z" class="cls-2" data-name="Path 41" transform="translate(-144.754 -128.181)"/>
        </g>
    </g>
</svg>
